<?xml version="1.0" standalone="no"?>
<!DOCTYPE svg PUBLIC "-//W3C//DTD SVG 20010904//EN"
 "http://www.w3.org/TR/2001/REC-SVG-20010904/DTD/svg10.dtd">
<svg version="1.0" xmlns="http://www.w3.org/2000/svg"
 width="400.000000pt" height="400.000000pt" viewBox="0 0 400.000000 400.000000"
 preserveAspectRatio="xMidYMid meet">
<metadata>
Created by potrace 1.16, written by Peter Selinger 2001-2019
</metadata>
<g transform="translate(0.000000,400.000000) scale(0.100000,-0.100000)"
fill="#000000" stroke="none">
<path d="M0 3970 c0 -20 5 -30 15 -30 8 0 15 -4 15 -10 0 -5 8 -10 18 -10 9 0
28 -9 42 -20 29 -22 56 -26 63 -7 2 6 3 -1 1 -18 -3 -16 -10 -33 -17 -37 -7
-4 2 -6 21 -4 18 2 35 0 37 -4 3 -5 14 -6 25 -3 11 3 20 0 20 -6 0 -6 -5 -11
-11 -11 -6 0 -9 -7 -5 -15 3 -8 3 -15 0 -15 -14 0 -124 64 -124 71 0 5 -6 9
-13 9 -7 0 -29 11 -50 25 l-37 26 0 -23 c0 -13 11 -59 25 -103 29 -95 30 -105
9 -105 -12 0 -15 -6 -10 -22 25 -84 56 -259 62 -348 l7 -105 -24 21 c-13 12
-34 25 -46 29 l-23 6 0 -364 0 -364 26 -26 25 -25 -23 -4 c-18 -2 -23 -10 -25
-40 -3 -35 -1 -38 22 -38 16 0 25 -6 25 -16 0 -12 -6 -15 -25 -10 -30 8 -32
-7 -5 -36 25 -27 25 -38 0 -38 -24 0 -25 -8 -4 -32 16 -16 16 -18 0 -24 -21
-8 -21 -32 0 -30 9 0 24 -12 34 -29 15 -27 15 -31 2 -41 -14 -10 -13 -12 7
-19 33 -10 20 -30 -22 -33 -41 -4 -51 -26 -16 -35 23 -6 17 -27 -7 -27 -10 0
-14 -13 -14 -51 0 -48 1 -51 23 -45 12 3 25 6 30 6 18 0 5 18 -18 24 -37 9
-31 24 13 31 20 3 45 10 54 16 23 12 55 12 63 0 3 -6 -10 -13 -30 -17 -39 -7
-46 -23 -15 -31 39 -10 22 -31 -28 -35 -29 -2 -56 -28 -29 -28 7 0 19 -5 27
-10 13 -9 13 -11 0 -20 -8 -5 -24 -10 -36 -10 -11 0 -29 -7 -40 -15 -18 -13
-17 -14 13 -21 41 -8 42 -23 4 -30 -28 -6 -29 -8 -29 -70 l-1 -65 37 7 c54 10
71 40 27 46 -40 5 -34 21 12 33 61 15 72 30 33 43 -35 13 -32 32 5 32 55 0 77
32 30 44 -35 9 -24 22 25 30 42 7 58 36 19 36 -26 0 -20 24 7 28 50 7 64 14
64 27 0 8 -8 15 -17 15 -22 0 -6 15 26 25 20 6 23 4 18 -9 -5 -12 1 -20 21
-28 l27 -11 -39 -12 c-45 -13 -57 -30 -27 -40 29 -9 26 -24 -6 -31 -45 -9 -53
-13 -53 -23 0 -5 11 -12 25 -15 35 -9 22 -25 -25 -32 -50 -8 -58 -29 -17 -44
26 -8 29 -13 17 -20 -8 -5 -27 -10 -41 -10 -34 0 -59 -27 -38 -41 8 -5 20 -9
27 -9 28 0 9 -17 -35 -31 -54 -16 -66 -35 -27 -45 26 -7 26 -8 9 -20 -11 -8
-26 -14 -35 -14 -9 0 -25 -6 -35 -14 -17 -12 -18 -16 -5 -31 13 -15 12 -19 -8
-35 -19 -16 -22 -28 -22 -84 0 -36 2 -66 4 -66 3 0 16 4 31 10 14 5 122 14
240 20 136 6 238 15 277 26 70 18 188 21 215 5 13 -8 -7 -11 -77 -11 -52 0
-120 -7 -150 -15 -30 -9 -131 -20 -225 -25 -93 -5 -203 -13 -242 -16 l-73 -6
0 -610 c0 -338 4 -607 9 -604 4 3 16 34 26 68 15 56 137 277 157 286 5 2 8 10
8 17 0 21 71 84 88 78 11 -5 13 -1 7 17 -4 12 -3 25 1 29 5 3 34 38 65 76 31
39 68 83 82 99 l25 29 42 -17 c24 -9 44 -16 45 -14 1 2 8 13 14 26 11 20 9 26
-10 43 -17 14 -20 24 -13 38 12 25 121 141 133 141 13 0 80 78 93 108 l11 27
6 -25 c3 -14 14 -37 25 -52 10 -15 26 -51 35 -80 9 -29 38 -86 65 -126 103
-157 146 -279 147 -411 0 -122 -12 -184 -57 -285 -20 -45 -39 -92 -42 -106 -5
-22 -3 -23 11 -12 9 8 33 44 54 80 20 37 57 99 82 139 25 39 68 106 95 150
123 195 218 291 288 291 l28 -1 -22 -30 c-12 -17 -21 -43 -20 -58 2 -22 -4
-29 -28 -37 -19 -7 -32 -20 -36 -36 -3 -14 -10 -26 -14 -26 -4 0 -10 -10 -14
-22 -3 -13 -27 -60 -54 -105 -66 -110 -83 -154 -73 -190 6 -22 0 -56 -24 -136
l-32 -107 296 0 297 0 42 191 c42 186 59 246 66 238 3 -2 -15 -83 -38 -180
-24 -97 -46 -193 -50 -213 l-7 -36 629 0 630 0 5 22 c3 13 9 47 13 75 7 57 29
88 40 58 7 -18 0 -110 -11 -138 -7 -16 7 -17 209 -17 119 0 216 2 216 4 0 11
-30 59 -43 69 -9 7 -20 32 -25 57 -8 34 -10 38 -11 17 -1 -36 -25 -31 -29 6
-3 20 -8 26 -24 24 -33 -3 -44 25 -28 72 13 40 12 42 -15 71 -31 33 -31 43 0
29 53 -24 80 -48 86 -75 4 -16 7 -23 8 -16 2 24 22 12 27 -18 4 -16 13 -35 20
-41 8 -6 14 -15 14 -20 0 -5 9 -18 20 -29 16 -16 20 -33 20 -85 0 -60 2 -65
21 -65 20 0 21 4 16 62 -6 65 -6 66 18 -40 5 -22 7 -22 195 -22 l190 0 0 28
c0 24 -9 35 -52 62 -29 19 -77 54 -107 78 -62 49 -106 74 -115 65 -3 -4 -6 5
-6 18 0 14 37 88 82 165 45 76 108 196 140 266 l58 126 0 179 0 178 -50 33
c-28 17 -50 36 -50 41 0 5 -9 11 -20 14 -11 3 -20 13 -20 22 0 14 7 13 48 -10
26 -15 54 -34 63 -41 8 -8 19 -14 22 -14 4 0 7 438 7 974 l0 973 -47 13 c-27
8 -108 38 -182 67 -74 30 -141 52 -148 51 -7 -2 -40 -59 -72 -128 -32 -69 -80
-172 -108 -230 -27 -58 -60 -131 -73 -162 -14 -32 -28 -58 -32 -58 -8 0 -7 4
56 152 24 59 66 160 91 225 26 65 69 170 96 233 27 63 49 121 49 128 0 7 -10
17 -22 21 -160 64 -638 248 -688 266 -36 13 -91 35 -122 49 -32 14 -64 23 -71
20 -7 -2 -22 4 -32 16 -10 11 -28 20 -39 20 -30 0 -106 25 -155 49 -34 18 -63
22 -179 25 -122 4 -147 7 -227 35 -49 17 -91 36 -93 41 -2 6 -305 10 -832 10
l-828 0 -6 -27 c-3 -16 -17 -109 -31 -208 -14 -99 -28 -195 -31 -212 -3 -18
-9 -33 -15 -33 -6 0 -8 16 -4 43 3 23 19 130 34 237 16 107 27 197 24 199 -13
15 -26 -57 -77 -429 -32 -228 -61 -428 -66 -445 -14 -53 -11 3 9 145 11 74 29
209 40 300 46 358 51 399 57 414 5 14 -11 16 -135 16 l-141 0 0 -30z m470
-415 c14 -4 45 -26 70 -50 82 -78 207 -151 380 -221 64 -25 112 -51 122 -66
10 -12 29 -75 44 -138 20 -91 25 -130 20 -185 -4 -38 -9 -146 -11 -239 -3 -93
-7 -172 -10 -174 -9 -9 -46 31 -41 44 3 7 -13 17 -42 24 -130 35 -266 118
-334 203 -26 34 -57 58 -91 74 -77 35 -81 38 -94 64 -9 17 -11 55 -7 134 6
101 3 125 -30 288 -20 98 -36 186 -36 195 0 12 13 4 39 -25 22 -24 45 -43 53
-43 7 0 -13 25 -45 55 -55 51 -67 82 -29 71 10 -2 28 -7 42 -11z m1994 -314
c10 -11 25 -17 37 -14 10 3 19 1 19 -4 0 -16 132 -35 188 -27 56 7 102 -12
102 -41 0 -8 5 -15 11 -15 12 0 41 -29 65 -66 8 -11 25 -53 39 -94 14 -40 29
-78 33 -84 28 -35 20 -131 -18 -208 -12 -24 -25 -73 -29 -109 -9 -66 -30 -139
-41 -139 -3 0 -12 13 -21 29 -17 29 -40 40 -164 77 -85 26 -260 18 -272 -12
-3 -8 -9 -12 -14 -9 -12 8 -25 -23 -33 -77 -6 -40 -5 -48 8 -48 12 0 16 -10
16 -38 0 -71 73 -146 152 -157 52 -7 85 3 120 38 10 9 25 17 34 17 9 0 27 9
41 20 14 11 34 20 44 20 11 0 19 5 19 10 0 6 4 10 9 10 9 0 5 -16 -15 -72 -4
-10 -10 -18 -14 -18 -4 0 -8 -15 -8 -34 0 -45 -36 -123 -76 -166 -41 -43 -86
-120 -86 -146 0 -11 -5 -25 -12 -32 -11 -11 -38 -78 -38 -94 0 -5 7 -8 15 -8
8 0 15 7 15 15 0 8 4 15 9 15 5 0 12 17 16 38 3 20 19 62 35 92 25 47 29 51
30 28 0 -32 -18 -124 -30 -153 -4 -11 -16 -58 -25 -105 -38 -194 -57 -264 -67
-246 -5 9 -6 26 -3 39 5 17 4 19 -4 7 -8 -12 -13 -8 -25 20 -8 19 -31 53 -50
75 l-34 40 -85 -84 c-100 -98 -121 -113 -202 -142 -33 -13 -73 -31 -90 -41
-46 -27 -77 -23 -97 13 -11 18 -25 30 -35 28 -34 -3 -41 1 -47 26 -8 30 -32
33 -41 4 l-7 -21 -21 20 c-12 12 -34 25 -48 30 -32 13 -119 12 -119 0 0 -5
-13 0 -30 12 -18 12 -27 26 -24 35 4 9 -1 18 -11 21 -9 4 -12 9 -7 13 6 3 -2
20 -19 39 -16 18 -29 29 -29 24 0 -4 5 -13 12 -20 6 -6 9 -14 7 -17 -7 -7 -69
80 -69 97 0 7 -21 47 -45 88 -25 41 -55 105 -66 142 -14 48 -28 74 -51 93
l-32 27 27 20 c19 14 27 29 28 51 1 24 3 26 6 10 6 -30 19 -29 39 2 16 24 16
27 -1 39 -10 7 -15 18 -11 24 3 6 11 32 16 59 5 26 16 80 24 118 14 63 14 78
-1 153 -9 45 -19 82 -23 82 -4 0 -12 -25 -19 -55 -10 -43 -17 -55 -32 -55 -15
0 -19 -7 -19 -32 1 -31 1 -32 15 -14 19 25 30 15 15 -13 -14 -27 -19 -26 -57
8 -61 54 -97 181 -74 266 6 22 19 73 29 114 12 47 21 68 25 58 6 -17 47 -24
47 -9 0 12 -23 38 -42 49 -16 8 -17 11 -2 31 8 12 26 22 39 22 19 0 26 -7 35
-37 13 -48 25 -67 38 -59 15 9 22 -29 23 -134 0 -52 5 -106 9 -120 7 -22 8
-22 9 -4 2 49 74 246 118 322 34 60 66 100 114 143 37 32 72 59 78 59 6 0 11
5 11 10 0 6 8 10 18 10 9 0 25 14 34 30 17 30 19 30 73 24 67 -8 147 8 225 45
37 18 69 25 100 24 156 -6 198 -5 215 5 27 15 29 15 49 -7z m476 -1094 c182
-97 270 -152 270 -169 0 -16 -9 -14 -70 17 -79 40 -330 183 -344 195 -5 5 -6
16 -3 25 6 13 12 12 49 -11 24 -15 68 -41 98 -57z m-2360 -212 c0 -8 7 -15 15
-15 27 0 16 -20 -15 -27 -51 -10 -35 -37 25 -43 l50 -5 -47 -8 c-26 -5 -50
-13 -54 -18 -3 -6 4 -7 20 -3 30 7 33 -2 9 -28 -12 -13 -30 -18 -70 -18 -29 0
-53 -4 -53 -9 0 -16 36 -22 65 -11 36 14 38 10 19 -28 -11 -23 -23 -32 -42
-33 -17 -1 -21 -3 -9 -6 21 -6 23 -33 1 -33 -8 0 -12 -5 -9 -10 4 -6 -4 -22
-17 -35 -20 -21 -32 -25 -85 -25 -60 0 -83 13 -48 26 8 4 15 12 15 19 0 7 7
16 16 19 8 3 12 10 9 16 -3 6 1 13 9 16 9 3 16 13 16 20 0 8 7 17 15 20 8 4
13 10 10 14 -2 4 4 18 15 30 25 28 25 40 3 40 -17 1 -16 2 1 11 10 6 35 9 55
6 20 -3 31 -3 24 0 -7 2 -9 11 -6 19 4 10 -2 17 -16 21 -37 10 -17 33 29 33
29 0 33 29 5 36 -37 9 -30 24 10 24 24 0 35 -5 35 -15z m342 -131 c-22 -17
-30 -29 -22 -34 8 -5 8 -14 -1 -34 -10 -20 -18 -25 -38 -22 -16 2 -34 -4 -48
-17 -28 -25 -29 -34 -5 -39 28 -6 -41 -38 -83 -38 -28 0 -35 4 -35 19 0 33
200 189 245 190 16 1 14 -4 -13 -25z m460 -149 c0 -21 -6 -41 -12 -45 -7 -5
-10 -15 -7 -24 9 -22 5 -31 -12 -31 -21 0 -26 -24 -7 -31 9 -3 16 -10 16 -16
0 -5 -5 -6 -11 -2 -6 3 -15 0 -20 -7 -13 -21 -11 -154 3 -185 10 -22 10 -28 0
-32 -17 -5 -15 -77 4 -131 8 -24 12 -51 8 -60 -4 -9 -6 -20 -5 -24 1 -5 -8
-21 -19 -38 -12 -16 -19 -33 -16 -38 3 -5 3 -22 0 -39 -5 -25 -12 -31 -41 -37
-43 -8 -54 2 -55 46 -1 19 -15 56 -32 84 -28 45 -31 59 -32 130 0 85 5 99 88
245 4 8 11 22 14 30 4 8 28 61 55 118 27 56 50 113 51 127 4 41 30 5 30 -40z
m-462 -87 c27 -11 6 -13 -152 -13 -266 0 -468 -20 -511 -50 -11 -7 -26 -11
-33 -8 -8 3 -14 0 -14 -6 0 -6 -5 -11 -11 -11 -5 0 -7 5 -4 10 9 15 -2 12 -19
-6 -11 -10 -21 -12 -32 -6 -14 8 -11 12 19 31 39 24 92 35 257 51 316 31 438
33 500 8z m168 -177 c-8 -32 -8 -56 0 -90 17 -67 26 -161 16 -161 -19 1 -74
103 -74 136 0 22 -6 37 -15 40 -27 11 -16 42 32 83 25 23 47 40 49 38 2 -1 -2
-22 -8 -46z m1955 -78 c26 -18 62 -32 91 -36 100 -14 169 -86 181 -187 4 -33
10 -60 13 -60 4 0 19 -20 35 -44 22 -35 27 -55 27 -105 0 -63 -22 -123 -54
-150 -9 -8 -16 -24 -16 -38 0 -13 -7 -40 -15 -60 -8 -19 -15 -37 -15 -39 0 -2
18 -4 40 -4 30 0 48 -7 72 -30 l33 -29 -110 -1 c-134 -1 -209 -16 -255 -52
-19 -14 -50 -32 -68 -40 l-33 -13 68 -54 c68 -53 149 -148 137 -160 -3 -3 -16
8 -28 24 -50 71 -192 195 -223 195 -23 0 -123 48 -123 60 0 4 -22 10 -49 13
-96 11 -167 71 -186 157 -4 18 -20 51 -36 73 -58 81 -61 168 -9 251 17 26 30
59 30 74 0 107 96 211 196 212 19 0 38 8 50 21 58 65 172 75 247 22z"/>
<path d="M1718 2841 c-16 -13 -25 -28 -21 -36 3 -9 -1 -15 -9 -15 -8 0 -19
-10 -24 -22 -12 -27 -7 -61 8 -52 6 4 9 -5 8 -22 -3 -46 -2 -50 33 -84 21 -21
28 -34 20 -37 -37 -14 6 -70 87 -114 25 -13 47 -26 50 -30 9 -10 119 -9 125 1
7 12 72 13 79 2 3 -5 19 -7 36 -4 30 4 39 13 44 44 3 17 65 83 93 97 20 10 21
14 10 39 -6 15 -14 29 -17 32 -3 3 -10 18 -15 34 -10 29 -38 50 -100 79 -17 8
-38 21 -46 30 -9 8 -45 28 -80 43 -51 22 -84 28 -159 32 -86 4 -98 2 -122 -17z"/>
</g>
</svg>
